<svg width="28" height="28" viewBox="0 0 28 28" fill="none" xmlns="http://www.w3.org/2000/svg">
<path fill-rule="evenodd" clip-rule="evenodd" d="M17.6291 14.0065C17.4013 13.1993 16.966 12.4373 16.3246 11.8038C14.3365 9.83663 11.1126 9.83537 9.12449 11.8038L2.76319 18.0984C0.775117 20.0668 0.773845 23.2557 2.76319 25.2229C4.75125 27.1913 7.97645 27.1888 9.96198 25.2229L14.852 20.3855L15.2758 20.3968C15.79 20.3968 16.2966 20.3464 16.7891 20.2494L10.8618 26.1133C9.62087 27.3424 7.99173 27.957 6.36258 27.957C4.73343 27.957 3.10429 27.3424 1.86334 26.1133C-0.621112 23.6561 -0.621112 19.6651 1.86334 17.208L8.22464 10.9134C9.4656 9.68424 11.096 9.06965 12.7252 9.06965C14.353 9.06965 15.9835 9.68424 17.2244 10.9134C17.8519 11.5343 18.3203 12.2522 18.6308 13.0192L17.6291 14.0065ZM10.3705 14.1917C10.5971 15.0015 11.0336 15.7659 11.6764 16.4032C13.6645 18.3717 16.8897 18.3691 18.8752 16.4032L25.2378 10.1087C27.2271 8.14147 27.2271 4.95138 25.2378 2.98418C23.2497 1.01698 20.0258 1.01572 18.0377 2.98418L13.149 7.82158L12.7252 7.81024C12.211 7.81024 11.7044 7.86062 11.2118 7.95759L17.1379 2.09378C18.3788 0.864592 20.0092 0.25 21.6384 0.25C23.2662 0.25 24.8967 0.864592 26.1376 2.09378C28.6208 4.55089 28.6208 8.5407 26.1376 10.9991L19.775 17.2936C18.5341 18.5228 16.9049 19.1374 15.2758 19.1374C13.6466 19.1374 12.0175 18.5228 10.7766 17.2936C10.1478 16.6702 9.67815 15.9498 9.36759 15.1803L10.3705 14.1917Z" fill="#7B61FF"/>
</svg>
