<svg width="41" height="24" viewBox="0 0 41 24" fill="none" xmlns="http://www.w3.org/2000/svg">
<path d="M39 13.5C39.8284 13.5 40.5 12.8284 40.5 12C40.5 11.1716 39.8284 10.5 39 10.5V13.5ZM0.739338 10.9393C0.153553 11.5251 0.153553 12.4749 0.739338 13.0607L10.2853 22.6066C10.8711 23.1924 11.8208 23.1924 12.4066 22.6066C12.9924 22.0208 12.9924 21.0711 12.4066 20.4853L3.92132 12L12.4066 3.51472C12.9924 2.92893 12.9924 1.97919 12.4066 1.3934C11.8208 0.807611 10.8711 0.807611 10.2853 1.3934L0.739338 10.9393ZM39 10.5L1.8 10.5V13.5L39 13.5V10.5Z" fill="black"/>
</svg>
